<mxfile>
    <diagram id="G5EUqyLvnRxqAqPChuoF" name="第 1 页">
        <mxGraphModel dx="722" dy="630" grid="0" gridSize="10" guides="1" tooltips="1" connect="1" arrows="1" fold="1" page="1" pageScale="1" pageWidth="800" pageHeight="700" math="0" shadow="0">
            <root>
                <mxCell id="0"/>
                <mxCell id="1" parent="0"/>
                <mxCell id="8" value="" style="shape=flexArrow;endArrow=classic;html=1;fillColor=#d5e8d4;strokeColor=#82b366;" parent="1" edge="1">
                    <mxGeometry width="50" height="50" relative="1" as="geometry">
                        <mxPoint x="210" y="237.5" as="sourcePoint"/>
                        <mxPoint x="318" y="256" as="targetPoint"/>
                    </mxGeometry>
                </mxCell>
                <mxCell id="10" value="" style="labelPosition=right;align=left;strokeWidth=1;shape=mxgraph.mockup.markup.curlyBrace;html=1;shadow=0;dashed=0;strokeColor=#999999;direction=north;" parent="1" vertex="1">
                    <mxGeometry x="330" y="69" width="24" height="378" as="geometry"/>
                </mxCell>
                <mxCell id="49" style="edgeStyle=orthogonalEdgeStyle;rounded=0;orthogonalLoop=1;jettySize=auto;html=1;entryX=0;entryY=0.5;entryDx=0;entryDy=0;entryPerimeter=0;exitX=0.487;exitY=1.05;exitDx=0;exitDy=0;exitPerimeter=0;endArrow=none;endFill=0;" edge="1" parent="1" source="11" target="48">
                    <mxGeometry relative="1" as="geometry"/>
                </mxCell>
                <mxCell id="55" style="edgeStyle=orthogonalEdgeStyle;rounded=0;orthogonalLoop=1;jettySize=auto;html=1;entryX=0.041;entryY=0.5;entryDx=0;entryDy=0;entryPerimeter=0;endArrow=none;endFill=0;exitX=0.487;exitY=0.95;exitDx=0;exitDy=0;exitPerimeter=0;" edge="1" parent="1" source="11" target="50">
                    <mxGeometry relative="1" as="geometry"/>
                </mxCell>
                <mxCell id="66" style="edgeStyle=orthogonalEdgeStyle;rounded=0;orthogonalLoop=1;jettySize=auto;html=1;entryX=-0.041;entryY=0.55;entryDx=0;entryDy=0;entryPerimeter=0;endArrow=none;endFill=0;exitX=0.487;exitY=1;exitDx=0;exitDy=0;exitPerimeter=0;" edge="1" parent="1" source="11" target="62">
                    <mxGeometry relative="1" as="geometry"/>
                </mxCell>
                <mxCell id="11" value="movie" style="aspect=fixed;html=1;points=[];align=center;image;fontSize=12;image=img/lib/azure2/general/Folder_Blank.svg;" parent="1" vertex="1">
                    <mxGeometry x="109" y="60" width="24.65" height="20" as="geometry"/>
                </mxCell>
                <mxCell id="15" value="" style="labelPosition=right;align=left;strokeWidth=1;shape=mxgraph.mockup.markup.curlyBrace;html=1;shadow=0;dashed=0;strokeColor=#999999;direction=north;" parent="1" vertex="1">
                    <mxGeometry x="330" y="462" width="24" height="125" as="geometry"/>
                </mxCell>
                <mxCell id="16" value="" style="shape=flexArrow;endArrow=classic;html=1;fillColor=#d5e8d4;strokeColor=#82b366;" parent="1" edge="1">
                    <mxGeometry width="50" height="50" relative="1" as="geometry">
                        <mxPoint x="209" y="408" as="sourcePoint"/>
                        <mxPoint x="323" y="522" as="targetPoint"/>
                    </mxGeometry>
                </mxCell>
                <mxCell id="26" value="" style="rounded=0;whiteSpace=wrap;html=1;strokeColor=#B3B3B3;" vertex="1" parent="1">
                    <mxGeometry x="366" y="72" width="382" height="513" as="geometry"/>
                </mxCell>
                <mxCell id="28" value="" style="rounded=0;whiteSpace=wrap;html=1;strokeColor=#82b366;fillColor=#d5e8d4;" vertex="1" parent="1">
                    <mxGeometry x="384" y="83" width="58" height="76" as="geometry"/>
                </mxCell>
                <mxCell id="29" value="" style="rounded=0;whiteSpace=wrap;html=1;strokeColor=#82b366;fillColor=#d5e8d4;" vertex="1" parent="1">
                    <mxGeometry x="456" y="83" width="58" height="76" as="geometry"/>
                </mxCell>
                <mxCell id="30" value="" style="rounded=0;whiteSpace=wrap;html=1;strokeColor=#82b366;fillColor=#d5e8d4;" vertex="1" parent="1">
                    <mxGeometry x="528" y="83" width="58" height="76" as="geometry"/>
                </mxCell>
                <mxCell id="31" value="" style="rounded=0;whiteSpace=wrap;html=1;strokeColor=#82b366;fillColor=#d5e8d4;" vertex="1" parent="1">
                    <mxGeometry x="600" y="83" width="58" height="76" as="geometry"/>
                </mxCell>
                <mxCell id="32" value="" style="rounded=0;whiteSpace=wrap;html=1;strokeColor=#82b366;fillColor=#d5e8d4;" vertex="1" parent="1">
                    <mxGeometry x="672" y="83" width="58" height="76" as="geometry"/>
                </mxCell>
                <mxCell id="33" value="" style="rounded=0;whiteSpace=wrap;html=1;strokeColor=#82b366;fillColor=#d5e8d4;" vertex="1" parent="1">
                    <mxGeometry x="384" y="183" width="58" height="76" as="geometry"/>
                </mxCell>
                <mxCell id="34" value="" style="rounded=0;whiteSpace=wrap;html=1;strokeColor=#82b366;fillColor=#d5e8d4;" vertex="1" parent="1">
                    <mxGeometry x="456" y="183" width="58" height="76" as="geometry"/>
                </mxCell>
                <mxCell id="35" value="" style="rounded=0;whiteSpace=wrap;html=1;strokeColor=#82b366;fillColor=#d5e8d4;" vertex="1" parent="1">
                    <mxGeometry x="528" y="183" width="58" height="76" as="geometry"/>
                </mxCell>
                <mxCell id="36" value="" style="rounded=0;whiteSpace=wrap;html=1;strokeColor=#82b366;fillColor=#d5e8d4;" vertex="1" parent="1">
                    <mxGeometry x="600" y="183" width="58" height="76" as="geometry"/>
                </mxCell>
                <mxCell id="37" value="" style="rounded=0;whiteSpace=wrap;html=1;strokeColor=#82b366;fillColor=#d5e8d4;" vertex="1" parent="1">
                    <mxGeometry x="672" y="183" width="58" height="76" as="geometry"/>
                </mxCell>
                <mxCell id="38" value="" style="rounded=0;whiteSpace=wrap;html=1;strokeColor=#82b366;fillColor=#d5e8d4;" vertex="1" parent="1">
                    <mxGeometry x="384" y="281" width="58" height="76" as="geometry"/>
                </mxCell>
                <mxCell id="39" value="" style="rounded=0;whiteSpace=wrap;html=1;strokeColor=#82b366;fillColor=#d5e8d4;" vertex="1" parent="1">
                    <mxGeometry x="456" y="281" width="58" height="76" as="geometry"/>
                </mxCell>
                <mxCell id="40" value="" style="rounded=0;whiteSpace=wrap;html=1;strokeColor=#82b366;fillColor=#d5e8d4;" vertex="1" parent="1">
                    <mxGeometry x="528" y="281" width="58" height="76" as="geometry"/>
                </mxCell>
                <mxCell id="41" value="" style="rounded=0;whiteSpace=wrap;html=1;strokeColor=#82b366;fillColor=#d5e8d4;" vertex="1" parent="1">
                    <mxGeometry x="600" y="281" width="58" height="76" as="geometry"/>
                </mxCell>
                <mxCell id="42" value="" style="rounded=0;whiteSpace=wrap;html=1;strokeColor=#82b366;fillColor=#d5e8d4;" vertex="1" parent="1">
                    <mxGeometry x="672" y="281" width="58" height="76" as="geometry"/>
                </mxCell>
                <mxCell id="43" value="" style="rounded=0;whiteSpace=wrap;html=1;strokeColor=#82b366;fillColor=#d5e8d4;" vertex="1" parent="1">
                    <mxGeometry x="384" y="377" width="58" height="76" as="geometry"/>
                </mxCell>
                <mxCell id="44" value="" style="rounded=0;whiteSpace=wrap;html=1;strokeColor=#82b366;fillColor=#d5e8d4;" vertex="1" parent="1">
                    <mxGeometry x="456" y="377" width="58" height="76" as="geometry"/>
                </mxCell>
                <mxCell id="45" value="" style="rounded=0;whiteSpace=wrap;html=1;strokeColor=#82b366;fillColor=#d5e8d4;" vertex="1" parent="1">
                    <mxGeometry x="528" y="377" width="58" height="76" as="geometry"/>
                </mxCell>
                <mxCell id="46" value="" style="rounded=0;whiteSpace=wrap;html=1;strokeColor=#82b366;fillColor=#d5e8d4;" vertex="1" parent="1">
                    <mxGeometry x="600" y="377" width="58" height="76" as="geometry"/>
                </mxCell>
                <mxCell id="47" value="" style="rounded=0;whiteSpace=wrap;html=1;strokeColor=#82b366;fillColor=#d5e8d4;" vertex="1" parent="1">
                    <mxGeometry x="672" y="377" width="58" height="76" as="geometry"/>
                </mxCell>
                <mxCell id="48" value="index.js" style="verticalLabelPosition=bottom;html=1;verticalAlign=top;align=center;strokeColor=#d79b00;fillColor=#ffe6cc;shape=mxgraph.azure.script_file;pointerEvents=1;" vertex="1" parent="1">
                    <mxGeometry x="143.99999999999997" y="113" width="20" height="22" as="geometry"/>
                </mxCell>
                <mxCell id="53" style="edgeStyle=orthogonalEdgeStyle;rounded=0;orthogonalLoop=1;jettySize=auto;html=1;entryX=0;entryY=0.5;entryDx=0;entryDy=0;entryPerimeter=0;endArrow=none;endFill=0;exitX=0.406;exitY=1;exitDx=0;exitDy=0;exitPerimeter=0;" edge="1" parent="1" source="50" target="51">
                    <mxGeometry relative="1" as="geometry"/>
                </mxCell>
                <mxCell id="54" style="edgeStyle=orthogonalEdgeStyle;rounded=0;orthogonalLoop=1;jettySize=auto;html=1;entryX=0;entryY=0.5;entryDx=0;entryDy=0;entryPerimeter=0;endArrow=none;endFill=0;exitX=0.406;exitY=0.95;exitDx=0;exitDy=0;exitPerimeter=0;" edge="1" parent="1" source="50" target="52">
                    <mxGeometry relative="1" as="geometry">
                        <mxPoint x="100" y="257" as="sourcePoint"/>
                    </mxGeometry>
                </mxCell>
                <mxCell id="50" value="list" style="aspect=fixed;html=1;points=[];align=center;image;fontSize=12;image=img/lib/azure2/general/Folder_Blank.svg;" vertex="1" parent="1">
                    <mxGeometry x="144" y="176" width="24.65" height="20" as="geometry"/>
                </mxCell>
                <mxCell id="51" value="index.js" style="verticalLabelPosition=bottom;html=1;verticalAlign=top;align=center;strokeColor=#d79b00;fillColor=#ffe6cc;shape=mxgraph.azure.script_file;pointerEvents=1;" vertex="1" parent="1">
                    <mxGeometry x="183.99999999999997" y="227" width="20" height="22" as="geometry"/>
                </mxCell>
                <mxCell id="52" value="index.module.less" style="verticalLabelPosition=bottom;html=1;verticalAlign=top;align=center;strokeColor=#6c8ebf;fillColor=#dae8fc;shape=mxgraph.azure.script_file;pointerEvents=1;" vertex="1" parent="1">
                    <mxGeometry x="183.99999999999997" y="283" width="20" height="22" as="geometry"/>
                </mxCell>
                <mxCell id="58" value="" style="edgeStyle=elbowEdgeStyle;elbow=horizontal;endArrow=open;html=1;endFill=0;strokeColor=#B3B3B3;" edge="1" parent="1">
                    <mxGeometry width="50" height="50" relative="1" as="geometry">
                        <mxPoint x="211" y="237" as="sourcePoint"/>
                        <mxPoint x="211" y="298" as="targetPoint"/>
                        <Array as="points">
                            <mxPoint x="245" y="267"/>
                        </Array>
                    </mxGeometry>
                </mxCell>
                <mxCell id="59" value="" style="edgeStyle=elbowEdgeStyle;elbow=horizontal;endArrow=open;html=1;endFill=0;strokeColor=#B3B3B3;" edge="1" parent="1">
                    <mxGeometry width="50" height="50" relative="1" as="geometry">
                        <mxPoint x="173" y="123" as="sourcePoint"/>
                        <mxPoint x="194" y="212" as="targetPoint"/>
                        <Array as="points">
                            <mxPoint x="194" y="164"/>
                        </Array>
                    </mxGeometry>
                </mxCell>
                <mxCell id="60" style="edgeStyle=orthogonalEdgeStyle;rounded=0;orthogonalLoop=1;jettySize=auto;html=1;entryX=0;entryY=0.5;entryDx=0;entryDy=0;entryPerimeter=0;endArrow=none;endFill=0;exitX=0.406;exitY=1;exitDx=0;exitDy=0;exitPerimeter=0;" edge="1" source="62" target="63" parent="1">
                    <mxGeometry relative="1" as="geometry"/>
                </mxCell>
                <mxCell id="61" style="edgeStyle=orthogonalEdgeStyle;rounded=0;orthogonalLoop=1;jettySize=auto;html=1;entryX=0;entryY=0.5;entryDx=0;entryDy=0;entryPerimeter=0;endArrow=none;endFill=0;exitX=0.406;exitY=0.95;exitDx=0;exitDy=0;exitPerimeter=0;" edge="1" source="62" target="64" parent="1">
                    <mxGeometry relative="1" as="geometry">
                        <mxPoint x="100" y="428" as="sourcePoint"/>
                    </mxGeometry>
                </mxCell>
                <mxCell id="62" value="pager" style="aspect=fixed;html=1;points=[];align=center;image;fontSize=12;image=img/lib/azure2/general/Folder_Blank.svg;" vertex="1" parent="1">
                    <mxGeometry x="144" y="347" width="24.65" height="20" as="geometry"/>
                </mxCell>
                <mxCell id="63" value="index.js" style="verticalLabelPosition=bottom;html=1;verticalAlign=top;align=center;strokeColor=#d79b00;fillColor=#ffe6cc;shape=mxgraph.azure.script_file;pointerEvents=1;" vertex="1" parent="1">
                    <mxGeometry x="183.99999999999997" y="398" width="20" height="22" as="geometry"/>
                </mxCell>
                <mxCell id="64" value="index.module.less" style="verticalLabelPosition=bottom;html=1;verticalAlign=top;align=center;strokeColor=#6c8ebf;fillColor=#dae8fc;shape=mxgraph.azure.script_file;pointerEvents=1;" vertex="1" parent="1">
                    <mxGeometry x="183.99999999999997" y="454" width="20" height="22" as="geometry"/>
                </mxCell>
                <mxCell id="65" value="" style="edgeStyle=elbowEdgeStyle;elbow=horizontal;endArrow=open;html=1;endFill=0;strokeColor=#B3B3B3;" edge="1" parent="1">
                    <mxGeometry width="50" height="50" relative="1" as="geometry">
                        <mxPoint x="211" y="408" as="sourcePoint"/>
                        <mxPoint x="211" y="469" as="targetPoint"/>
                        <Array as="points">
                            <mxPoint x="245" y="438"/>
                        </Array>
                    </mxGeometry>
                </mxCell>
                <mxCell id="67" value="" style="edgeStyle=elbowEdgeStyle;elbow=horizontal;endArrow=open;html=1;endFill=0;strokeColor=#B3B3B3;" edge="1" parent="1">
                    <mxGeometry width="50" height="50" relative="1" as="geometry">
                        <mxPoint x="186" y="123" as="sourcePoint"/>
                        <mxPoint x="212" y="398" as="targetPoint"/>
                        <Array as="points">
                            <mxPoint x="258" y="123"/>
                        </Array>
                    </mxGeometry>
                </mxCell>
                <mxCell id="68" value="" style="shape=image;verticalLabelPosition=bottom;labelBackgroundColor=#ffffff;verticalAlign=top;aspect=fixed;imageAspect=0;image=data:image/png,iVBORw0KGgoAAAANSUhEUgAAAv4AAABgCAYAAABllnajAAAgAElEQVR4Ae2965dlR3Ev2MtrPP+KxZpv92+YLzNf7hjhe9eaL/MJCczDPD0GbIPBvA3ciy/XgAXY+Npgc5fpbr0lBEICCVRV3eqW1K1+SOpuSa1+1qn349SpkzO/iPxFRubep7pKXVUt1FFSn4yIjMzIjB2ZGZk7M/eBAz1/KaXfTyn9UUrpn1NKp1JKi2mc8L/9jR2iYIeQE4yrdJqB47Uca6DDEfIrPYb+i72E/UEXrsUQlDDaH9XRWkzBu1AnTfQ/3sJS9D/FZtRWnMUQlDDaH9XRaqzgXaiTJtpftD9nJtH/FGVoW7EWA18dPjt8d/jwv9/j4ndJKaU/TCmdrXr2IsOgvu7MIs1ErTAaRZSh8cFtMWLmbfCSuUAd/iqeaRnmSKIMncxOft6yqrwV6fBXPBTAMOSLBqgOhqF/s5qOPYX9mW76gI6+KiYaGMMcSZRh2J9praPPsD/TTR/Q0VfFRANjmCOJMgz7M6119Bn2Z7rpAzr6qphoYAxzJFGGYX+mtY4+3z72dxY+fdfTz5SU0u+llL7SuuBjpwCzF1NXATpxDUHRmihYTZKVS08K+UUbBSp6J9SJawiK1kTBalLov5mChv0VAykQra6EnbiGoGhNFKwmhf2F/Tl3JKVof6WBFKi0O0KduIagaE0UrCZF+4v2F+2PjQqt4W3i/26Kb59+rzMBoNPv6iydQME7PUS1u4DWwpmTcjfv53JmXpklf0CtDI97mBm51Dk65Ksi7LdPbc6YnQZD/2F/tTlU+ugzJMeeo6P9WcvT9tSntmh/znA82CrL4x7OaTwpw2F/qgj79Tqi2sL+vNE5uFWWxz1MRXaThv2pnuy3T21hf85wPNgqy+MeftP295XK8c/be1xuToiAiuPXxWS4S/FVEVgSej4nCnlWhiDMJQtJpmmbmJBvyqW6VE/ELBTF9cRlUujf60aUZapTI9P4JibsT7TU6q6oziBRnOfLMZkU9ud1I8oy1YX9QRWqn0Yzjkp1eT2SlpNXY0yOy+xhf15vjZYlSuObmNC/mJHqRi3Kw2F/pgExnB7dZFK0P68bUZapbg/6f932Iwd5x+ms71xFmC9LKUaGupFVcTPC2W+bXKNdHgIqbqCLbtOzrJ4OdkuSkZBvGvGqyo/XxQmouIEuukosSDcSFKNmJPRvGqlUqOpxcQIqbqCLrhKH/r2lmWqgLlNZRsL+TCOmJwCqHhcnoOIGuugqsSDdSFCMmpHQv2mkUqGqx8UJqLiBLrpKHPr3lmaqgbpMZRkJ+zONmJ4AqHpcnICKG+iiq8SCdCNBMWpGQv+mkUqFqh4XJ6DiBrroKvHN6x97/n//QD756/KmRIT8V54qY5lAF1IytYk0VHb8GFYya/bTaZ7kQ8h/JQljQ37Wligka6VRjqGh/8bSqJm+rqnEhf1BF1kfdcDml+8A6I/MVMmi1jRjamq0f2ig6CbsD7rI+qiDsL+sgRh/XZth06FuaCUx/sX4x35EbIKGcruOP+mPDqS0iWt/VC3UBxtMDpU8IdLzTmCpyEA6hJAvKqn0UhSr5AmRha3Ra4moUgLpEEL/opJKL63+JkQWtkavJaJKCaRDCP2LSiq9tPqbEFnYGr2WiColkA4h9C8qqfTS6m9CZGFr9FoiqpRAOoTQv6ik0kurvwmRha3Ra4moUgLpEEL/opJKL63+JkQWtkavJaJKCaRDCP2LSiq9tPqbEFnYGr2WiColkA7hNtP/ZvpnrPjjzs+ijL7zuNwf2RdX9GuQ16vB477ZlSUJ+VRUn45D/2oofbpxJkSQqgRucNhf0QUV5UMqqk/HYX+qqT7deB1mmKoEanDYX9FFj84ssk/HYX+qsT7d9OjSbC7sz8wKrya9XjpqY2SfjsP+wv6ggT7b6BiS6/Pfuu3v1IExPs7V9yfGztbQZeiNIREh/3WTFnVs1RhDftFTjw6p6iqKROqeeMUEJEeE/qmJjoZ0D8tEBfanIztC/uvmHPqn9sL+qImulUT/V9pJVzv9eov2p5pi30N9dPSXI6L99dsR9BXtL9rfZOvoj2F7e+u3v8UD5gSKsVeYdBe+LhZbEzvdCvkmsjGikqB2VkU501N6jiUTw04JKu7uQ6rSOaRnRsfYKsea2JEe9a+0FfpvLYT2E/bvWni0fzSUyjScdqoWRSaGrX3lXBjN0NgqgkNCfujfjEQBWoeGGauJTQqgFXdHpzWBmUX7h16cNkSvxCuN1sTQf0cDlbY6Oq0JVObtZX8HZGJb2mqxvKwPpxZTb6XWHoYuqaUUPORntVIlTUjUlN92qz0MXVJLKXjoP/QvGqBJNCHRsL+iAdVJ1kyPgrqkllLwaH/R/qL92aAW/ge7hhwSLb0PVTSZoZumpRQ8+p/bs//BHv/mj0aB0MEOZAKSFCfGkFx1aLECGOaYSEPoYAeSmSTFiTEkVx1arACGOSbSEDrYgWQmSXFiDMlVhxYrgGGOiTSEDnYgmUlSnBhDctWhxQpgmGMiDaGDHUhmkhQnxpBcdWixAhjmmEhD6GAHkpkkxYkxJFcdWqwAhjkm0hA62IFkJklxYgzJVYcWK4Bhjok0hA52IJlJUpwYQ3LVocUKYJhjIg2hgx1IZpIUJ8aQXHVosQIY5phIQ+hgB5KZJMWJMSRXHVqsAIY5JtIQOtiBZCZJcWIMyVWHFiuAYY6JNIQOdiCZSVKcGENy1aHFCmCYYyINoYMdSGaSFCfGkFx1aLECGOaYSEPoYAeSmSTFiTEkVx1arACGOSbSEDrYgWQmSXFiDMlVhxYrgGGOiTSEDnYgmUlSnBhDctWhxQpgmGMiDaGDHUhmkhQnxpBcdWixAhjmmEhD6GAHkpkkxYkxJFcdWqwAhjkm0hA62IFkJklxYgzJVYcWK4Bhjok0hA52IJlJUpwYQ3LVocUKYJhjIg2hgx1IZpIUJ8aQXHVosQIY5phIQ+hgB5KZJMWJMSRXHVqsAIY5JtIQOtiBZCZJcWIMyVWHFiuAYY6JNIQOdiCZSVKcGENy1SFjD2jeRGsmj/VzkMrQp/Af5moO1vhXWpK0P73PrZ+DVIY+RcgvH8YI/VcWEvZnXUq0f/QZlXXUnUjG+jlIZVgnjfZHvUT/Q02IhUT/U1qcKKbSTt2Iov3RZHr0Qr0xrFmi/6Feov+hJmhMsuLfEtV8KmptUQ1GTrw2gort9RH5jIGEOmS0UA0xoGbuwcgZ8kP/YX/R/qL/aTpJ6yAbekYZLaghBvQnclRyRv8b/W/0v9H/Rv/rOkeA1kE29IwyWlBDDOhP5Kjk3En/29nqo5n4Xy23zZk6T9WVwGrYT5Nc8+TAc3jYS1Y45EMPof9sDWF/vrk0MFuMJxeaQNH+Slvyasqwasv/Rv8DbUT/ozbRXdXyRpR5PMmNiRIb7a/YUqUnRVSD/jfaH7QR7U9tItpf1kNP29GW0kYUfoFy/9M4/oWp9FeZVgeSO30wZtiKLLjLtxB7IMdnYAbqQNKGfFWhqMb01aPW8jD7Ih3NZWJgBupA0oT+VXWiGtOXU6eBW0YaV9VwLUkG6kDShP5VdaIa05dTp4FbRhpX6N/pycAM1IHoLOxPTUdUY/py5mTglpHGFfbn9GRgBupAdBb2p6YjqjF9OXMycMtI4wr7c3oyMAN1IDr7Xba/2vGX2UCxA6t7ITlIYz2PwJ6wBXcvb8ivXPQJqsxa1VjP06vTCdy9vKH/0H+nzTpCBYb9QR3R/opR9PYpObq1ll7e6H+69lTU20CtRrMtKrnhpZ2WyNB/03ihsbC/sD/XckprcUQDNdbz9LapzN9y9/Luo/2Z4+8rYHUTgC+ZXKmM2YA6SWU+TZTF1WlrzKcJ+aqb0H/XdCZZzSQ67IpxDNXWaizsr2gg2p/aRrS/btOZ1Gom0aP9Rf9D22AY/a9vFaXfJRT9r1pK9L+72f/WH/BCztYeDaAFSuipHkbCCm+RjPP1SBHkGUN+UaLXS3kEnurh0H/YX2UPLZLxaH9sS1QQQ9Cj/4n+p7UP4ho21uIio//xuil2BBWVdhX9D02G2mJY66n4R+TXsOF2kWF/Xjdhf840etqfrfi3hlbMqEA+K4ErTZfYlkxcQ/9b0oR8akl1UrReIK8tgeskFt2SiWvofy2JWwlXWpFaIM8tMDNuIloycS+ZtJK0phSpBSq8GaqTWHRLJq6h/7UkUf+6p3TT+NA/7cdbi8ATIloycQ39r8+RXEorWi+Q5w75nSZr6qk1WUYWr/mWp3CF/qGBYnUFMgUT6CpRYloycQ39LzNCSC6lFakF8twC10ksuiUT19D/WpKQH/r3xvC2t39x/DkLr5oYiaYC12DYktj6yNvS3Uyj0mqDlOQuAxJDfm6SoX+YjWjBmYlQaCstPeyvHU+blqdoUZ9TIInR/qL9iZmobcivM5Nof1jNzgpp9RL9T/Q/lU30dr/OfBwzbSr63+h/96D/dSv+jVGa4bHt+mlBhp2dltSOz+INyJk5vCSsoZBv+lBtOb2yM+hVo+OzeANC/6IKpw/TcgOE/ZlCVFvOrsL+dDDqNSOnJ4s3INqfqMLpw6ysAaL9mUJUW86uov1F+4N19DYjZycWb0D0P6IKpw9rZQ3wNu9/nOOvBuNVYrBTgqrHYipDAtXFVBjpDBs1C2+b3nhDfqMu00zoX1Sh+sCv00yFkc6wUWjYX3YmvH4MjvbXmItpJtqfqEL1gV+nmQojnWGj0Gh/0f7Edrx9GBz9T9NcTDPR/4gqVB/4dZqpMNIZNgq97fof3epDLbRacQ3Oogxgohy29F6cxBzWQfvUyitU/wiZRSO+eeI9eSEBE9eCSbVo5h31pyaKakxZFqVAS+/FScxhHZTHw6xD/9RE6J+aoAkRZ9jSe3ESc1gHYX9Uj+m0EAwygEw5bOm9OIk5rIPQP9VD1Ub/R01E/0dNtDYyid7yCU5iDusg2h/VYzotBIMMIFMOW3ovTmIO62Bf9V9W/F0ng6o0RbR9aE11BS0vl5CKKWtOoXaiHCHkVwqjZiwkUHEpEvqnchASrhUl1E6UI4T9VQqjZiwkUHGF/UED0f5oHAgJ14Yi1E6UI0T7qxRGzVhIoOJSJOyPykFIuFaUUDtRjhD2VymMmrGQQMUV9gcN/C62v+L4+wfaPmSPe7inkVXRPk8Py+1eW3C2UR73cMj3WhW4Uk8nNhNC/66x9iipVaLHPRz211FepZ5ObNifaCDaX7S/nr7DmkvbiDzu4Z48qmjLsAHC/sL+emzHrKQ1Io97uCePKtoybICwv1tuf/ke//y45IG4h9TMgl2Mgu4pC9jyM14jy9wo0zXAbyFkKOdfYR3xTIYI4Qz5tY6oPlVO6J/NLetFA/wWQobC/qRRVdqobUviC0k4o/0VhXj9qHKi/UX7y+OUmom2LvwqhCBDmaHCatvy9sUcov3VOqL6JMRPXpvNdA2ULglD/2F/3oLa9uTjAGc7MrDlZ7yEamcGWnKlS9b7aH+64i+lqWvlSXyV4Qtdc+8EczkTZOiy8aSQr9qQX68Yp6/tgy4DggxdJp4U+ldtyK9XjNPX9kGXAUGGLhNPCv2rNuTXK8bpa/ugy4AgQ5eJJ4X+VRvy6xXj9LV90GVAkKHLxJNC/6oN+fWKcfraPugyIMjQZeJJoX/Vhvx6xTh9bR90GRBk6DLxpNC/akN+vWKcvrYPugwIMnSZeNLbUf/14V6ruK92JnZImSCBi7RZS6ERYogcJ8EqzceGfNFARyWZIIGLDP1n2yo6IcQw7C/a3yRbiP6nbR2qkarDFlLWoAROm9H/RP/j7cON9c5KKnPydLW2LqVK4PMXVscf9hf25+0j7M+ajmslSbb6+DcUPlIbYXESfBxhhuRlWOgFKjmBi/RxdXCYVOZTcxYq+RiWGIUKvUBFZp1r1L9oz2uLVNIY1tojVx0W3gKF/vt0EfYf7a+0HW8hpJLGEHTCDMnLsNALVFLVOYT+qbVaQ6RSgwxr7ZGrDgtvgercSY/2H/ZXbIdWUSjFanwcYYaeH3ChF8hTCxz2dzvanzvcmw1Egh5jMZIBta1V5Aqp+CzGZuaMzjESGFcxYSMZwIQaVuQKqfgsJuS7zgEqypqRwLTU0B1fpdXCpmSfvma0mNA/NZ4VlDUjgWmpKNZIBkxQLMgTeHxM6L/RUtaZBF5/nr6Fbn2SJmf/oIwt9N9oyevZtFQs1kgGeLU2Jj+Bp+Qm/DVXxiTwMZ4ez79RdHkGXmXNky1MLnXYf6Mlb2demZ4e9ucsyJtVQ/b6m8B2m9ufc/wnKIjkRlHdWZJTNkEJuUOKGSEkg6fVcIdjB/I3hhtpeWUlLS8tp/F4s0daJ/daeF8JdyDfBN6i+of8/Di3of/xcJjGq8u3/PlvjlM6Nxilx15aS4dPrqWZ14dpdmWzlOsW2h/U+Mb8KD15YZh+enI1/er8ejo3u5k2cvG0NemvFJighPvf/mH/V1fGUuY3FjbS4joLRHW2OOkl7HDsUP9ID51B/sUFhO7f4ka6ZPimxF1Zcs/6Fvc/6NsvLdblgU69Tna7/19YGzsdbVY6g/4uzY/SxcXN9Mai6vHivOoNetWyutIRlHDv7O/y4maaenU9/fuJtfTYy6vp7LWNtD5yitpj+bRWrS4rrcYzuzpOT59bTwdPrqTjbwzT2oaLr54kc6lDzy0xrlrAd/P5D0fjtDKsJdaY1snTKB/95kuzo/Tw2dV06ORqev7SMK0yL0mwd8+fGtNyudIRDPny4KgO6qvuSQrVQ500N2F/aJLsf1elHXRy96IF7nDchPxOXm+B9meOf6d5sGV1VKKEDn/Fx6oyzJFEGToFdPK7CflnzpxO09MzaXp6Kg0Gg1IyymW4R/KLYZsgKq0OQ749m918/tvR/8ZLL6Slb30yXftP/1ta/t5f874HK081shWqQZ3yWgwAPneGOZIowzROS+vj9LVfLaZ3H5pN7z40SHfh3+FBevfB2XT3oUH60APz6filYZW7SrBMOnE7kc/EnfqM9RXwT0+uSTmkXCzfoYGU972HB+neF1cTBt/6jwSGOZYoQ9MTSmxEZb6J9n/sjfV016G5dNehWdHnV55czHk25XAyd1M+anN1aWzyoTs8y7sP4tnOpbsOomx41lo+wHj+1d9N1H+nzx+O9Xenl9Jnf76QPnjfnNnfcmfCVErY0VeJ2pH9M9mnH5vvtX/Rl7M72iH0dffh3F4ODaQdMa+d1h/pOvXZQv/PvTFMH3pgUMlnuRD+8OhSWt/QXEuZ+tRSbH4n8nvLmwU9/spaet+90Euxf5QJ9vf/PjifXlsYFfXsof1rcUr9BCeaw9PXhulvn16Ssn1nKrfRXI8b9b/ro830X59ezO2o2IE+h9n0yUcW0pWlEXOri8Ny3OL6uwexI/tDZTr2UtWUFWSYI4kyvE3q/+zFofW/P35+xandFNHV5xbt/+2g/wPu2Zt1FHVgZl+wAlVWJkgnriEoWhMFq0kdk34z8s+cPZOmp6bTzMy0Of77Kb9PISEfWqkftmA1aVee/yT9jxfn0sq9P0iD9/7v6dqd70hX77wjXXvnHeL4S5qc0BfpzdjfJPlt/Z99Y5j+ODs1d8tArQNY3wTgBzPLjfZKiQH5Mm9X/lb6xwrcRx6aswmITEZcGcWZyI7XJx6ZT1hVqf4aXNGaKFhNuunnj9XDD9wP57o4Zl95cinrpxa2F/Kpg5OXN5xjOFecWnNiMw2TAXHM5nLSekjfS/sbbqb0T0eXTb46TZiEaJmWhpj8FZ0ViLUsYSeuIShaEwXLpL96rDhxlO8nwFvZH8rdeatTi9q15/9vz62Ys+knHlZm6O7wIH3g3rm0zJVna591oXz9vSY913b1j/b3d79d0rKhXTr7xySA5cME4DcX1kXcbsr3ZS6Z+1oBHie82fn3E6vpww/kiV62/7+f4lvXG9s/Vm8//MCca1/FZsWGc/3fc3iQfuvr2vSSt6L+RSO5z+5RnCdt9/n7NFvp/3aU/+zFDbP/Hz+3Yiq4nZ+/rfirNlrz8biHs+48KcNstoo270eYzA0m9hQE8BmC4HEPMyOXOkdD/pkzZ9LU9LSu+M+6FX8m22P5peS3pv4hn5YzTliO3jj2q7Tw+bvF2b8uzv4fpGvvuiNdu/OOBBwr/vrX2pjHPdzD7uxvO/qHo/Ke7GC9G6vAhwfpc7+YTz86vpIOnlhLX30SjlBeERYHezYdeb1Z+fdF2qH8XIMmKBl++Yla/gfvG6R/OLKcHji1lv7xyHJ6/73qXNNZhAOp9dY87LdkabL8YGbEnHoy3peR487RWLkujs6sOEBf/VW9mriX8tn/PXEObx1UvjiI8gznZOUJb3PwvKk7Pn9abamVr7OHM4cnZZjyFZ3c/5ybG+nqPt42ZPujvWES+r5759Iq93KJOC/s5uWXOip0z8xy+uiDg/TRB+fSxx6cl5D4Rx+aq+I+9mB+Y5KdRqThULHd+rfyFW/r6PFxOn1tI0E3cJ7l2R0cpG/8elG2mPzDzHL64H1wZtFm1dH+/OPzVi4vby/s7/CLq1I2ykcZ/8tTC+lfjq2kv/r5Qra3Yn+zq81WLimgry8IHvdwro0nZXiS/mdeG6YvPL440f7Rbmt5k+X/6UPzpn88B7yp+rfjK+neF9fyWwBOdLT9DZq67oX+qapJ9c8akyDke8OpNOORxh560njSFvZ37I2h2f+/PrdSLWbUAn2GiPG4h3MqT8rw78rzF8e/NkTUwNVIQMWbmMzleH06r1FJ6Plqxe22fFnxn55OM9NY8c+DQp+zn4u02/J91QXe5/qH/KKBhS++T1b1r73zD8TRh8Mvzv+d71D6u+5IS/d8riQQG3a2KqDi8hgbzqqt7MD+/+bJsjoHR/CoOfVFyqmro/Qe2R6izsQH75+rJJRSsVBKIWahZNkTl0mt/R+5uG4dJbanfP2phTTa1JoyF6ys/8Vj8+luTk4OzaW1ylE06TkhUzZ09DZV2wSf4xVQ8SYmcxXes9eGZcUzb2+AE/aVJxbrTcksQk66W/J9uQ+ehCMGB3EuffLh+bS4upkW18ayMr2EcC0ZvrC6WfYlS61KnbSSiuPXxXTqX8eykjmR0zH2QH/gvuw85W1l7zs8SAdPrqUTl4dpxT9HEbi78q1kuTI71T9cVkw8330YW1hm02Mvr+UsvXZMiqrF1d9idij/048t6MphnrSdvIr9PEXmcLQpTigndXj+aMPCsgvyIalIIzyW/ft/fBhOvS4UfPjBuXRt2Tn245QeO7tqbQPl+vYzy8xg19qfZWgKVuBLjy+kuzDZzW9D2C6Io//7+yk4/vhraikV1lrjF28rqF88/ydeWc3pmDYlTGqxqEI5//03S/ve/l2hcpW0Dh06alzZBvgcr4CKNzGZy/H6dF6QJPR8OTKT3u7yn319aPYnW32om9uk/tqk6uevK/5C0wgDaz6qqrYYRwW7JckIZz+OTUCNNu6cUHH5VYY2mcNd2kz1Sc6cPitbfaZmmj3+Fa/LQ0DFDXTRTrDLoaaC3ZJk5FbVXx80ymMlqgqrxXNxAipuoIuuEgvSjQTFqBl5K8if//T/Y6v7WOGf++j/lVYe/bc0+8H/wyYAy/dgxV9LL7+5/N16k6K8xBBWSTIyqf54Lc9X73AMsVo4Sf7/fGFFBjpuBdJDcDcnX4vn8hBQcfxiWxG2CmBgxsrvemcTv/LioCXKj7KhPi9clo3NpoxJ9UfqKk6y0zwNVNSr2MHdSOj0Qw9wJVjfRsAxQB2+0q7474F8lMhKNU7pe9PL4phC/t/cAvkoTKVjp70v/jI7sHli8jdPLKYl7PthHarKuIQGWk0rilFz+knyNdq4s+IUl19lsLxbAAfgYXdwAN9377xsB6+SZGS35WNyhOcJh/Ke6bJlAOWjfKwu340zHAfxJmWQsBLf/ikvfvOfgIob6KLJVsI6EivdaH/sU3Dwvu/5/+CIbusi7xxXwk2oexS1iCJaoG4kKEbNCPX/Gbxx4FsSnDV4eD7df3olfUxW7lVX353Wt3KSR5VZLRpvd+jQf/YXCxZZJRmn9PCZNWt/sBO/6q+8IknTC6i4gS7ahBjQjQTFqBlh/S1ZBjTauJ3SHeii2/ROkkVlkYpnJOSrErGllvaHrT6qHo0ThQmouIEu2pRsQDcSFKNm5K2s/wNW2E6lWJXMUQeFW+j9kZkqGqmVwJiaqpmWOFVlnTdjWQCdLNc82OozPT2dprjHvzMIMpebk3/9+vV06fLl8siZbS6coduQj1uILly4UPLK5mnmVFeR1c9noPojdyLfMjTzRWr9NxwO07lXzqXRaGSx5O/Tv8U5gJqWvM6/kkabOHhFKhkRstRFvsRmMmOZ4kby4fjP/t//IS394xfT5hvnc7JxmvvTO9P1O/9A9vmXrT67L59l9zU9N7eRnXk90Is9q+WPNdT6XxLnWvfsovN69lJ2rnOCG9W/T77XMaV5+VjZ1I5yNn35iTy4ZsaWXwdhXc2792Tt5BjvNuzfy1cYqfmvmIXlmROw/tgi5Scrn8HqLB3/JxYbS2Mu/qmwBCVuJ/IlNZOmlP7myUWT//1pnM9wkQbX1FJvQODnvxvXv5XPHEinJBzkveuwbjXCCvGXefBZGH0qys7lroPCLfT+yEyValC+JmRMTW3jJtX/wzjDkR3JHx+HA7738udWNkUmtkXB5rF1BX+0P0W0Bh/PW1Fgfzi8iuLVNb25+qsU/YX8v+Uh14ODhLbLP0qhfOyvF73l5//gaXWCyJ9zzChS899EFffWn/lR/md+tpDee++sTIZfm9d+HzyfeoRbcgbpu9Nlj38pRy1/OEqyLU37nEHCIes+/SP95iZ4daKGfuE3r/KtEGJZsvqpFLnkqeWTqnyZW7LS/J58ZV1uFWI8pVD/pG9H/umrw/T4y6tpxEWXnJnlmTObVH9EG+8u29+Zqxvp8ZfX9C2wCOkv3HbkwyZ/emI1LdkuVqZCyAEOjMUAACAASURBVH+lMoylLrdTf6z4vxs2f2iQdI8/c9nd518UrqWjlDfz/Evdcy51wOpPtP8bPX/5gJcxWUktXwGUPCHSs05gqchAOoRMquglYyVPiCxsli8dfzj/c4NBV1yVlcu9opeMHYe8lnv99dfT0aNH5QzBiRMnWsaCZ6jKFogjXL9+LT333HNyJmFmeqaTFgQvv5eBRJcvSSV9pjTyq9yb9CvLy+nFU6fsvMTaWu3YeRkCN+kZD/Iy8nrxxTQzNZ2mp2bS6irz0kTyu0V6lpN59oY96cdz1+RKV+MHzziluY/fqVt/7vyDfKuPKdpYCWi2PZmTgeEEloo8TumZC2VLCpwv9O3CUzFqpmsY7PIqI/aK0+GgyCrsSY/4igykQ6jlY3B+/tKGDGKXl9g5VolM7B/LDSK6CvrjY/UqKJmqlNuQz3QMNX2VC6MkRHnpDKBzf+bV9fSlX+rkBfTKud0D+VYYV8S/+JlupYH8Q37Vd5/kW5max41JCG8Vgj0NVnXSKUV35e+mnxDZZfQUgauUQDqE2v7aDJRdf3F9Jp1+6HbFX1NZ5VtyqchAOoQby59dGVWHSTvnbSAu50vHH+X8b0/zYHkuz5uUb5mXahn0549iy506ufeYA23RLJYQ/vLReXv+yquFlt9c/pJSIcfRRtX4hPTXVzbLzV/gyXyfRFny9qTvYKvPhPRKHie0cz57hNg6V/05FLvVsB0MekH/CedS/sDj+IgIqaKXnJU8IbKwpc//Qvucjzw4lx46s5awHRJ/VUogHUImOfqhk3irNUh/fO9c+uGzy2k+t1Mnrgu69D6yIgPpELryu+lLIlybKmU7PEj/9Oxyqt8c+ZQKl5RZtiOcH2zYM/3mU0vp/MAvgvn0LlFXhGfsxB69WFb8/xULBVVWishvRS/ZOI5C7IO2TJ8TgKfic7lX9CLAcRRiH7Rl+lp+OdzLRHRCfMY6rZICk81Ht7DnMRjXA7aMHmfkLsg/jVt95HDvdJrldZ43KX9jYyO9/NLLaXoG14Ti4LCGJ15wjn+uD6sC1GAnH3vqLl68mI4eweRBzyLoLUQz/TreZ/3Pzs66yQgc9Skp5+rKaqmPf3YNbHVOKV2XvJ6XPPAGhs+lOP6N0nbh+Xv5Bjv9Q2Jx/O9IKzjcS8Z9kt+obKL8Fy6V/YlYuar27nYyUQKrAszgpv6dpGTcQf1l9dhe4c/J/f6VzD2WT1l/9jAcCN36gUPJqAodfwz6uNUHSyOsYqfuzCiHHb430f4+lFelIf+p80ORf311M528spFw/3vnj0J3oP9OHpnArIAanOsv13XmZ/Y/8oFsOCinr27IDSh4+2RpKOBN1N+SGrA7+scNUur8zaX//lvuC6cQDX35Dd6F54/zLniekP/Do/2TXGzF4x508N13ig7n7tTf6uOq/AFcwZrtHzfmeB6Dc/3/y1Pl9qQvPF7eDliiPbY/V+z0yfws4Zx/95n8LLeQ/9vz66Z/bC+c9Hd5aVMOh0P/+rzm0rd/q/3CpDS7Uf/P4yyDHJZXG8E5Axxav7qMSu3s+dO5lgldPh/x1ScW06lr9RvfvvrYM+9p/338QmOiLfQPHYFNy1beuqHOX31yKZ2+rmVjVsjX4An1h6OvddTbsJDXpx6dT0+dX3eTxZxLX9l6KmQys3zc6oMJJt4A+Vt9qqRM1CfjLdT/sZhV2RvE8xjc6L9nq0/ORSpryZqs3QP1MWRHyH8+3uDM2BTGogHchPwzp/U6T6wsV/f4m4Dty7eV6jyRoKM+Na3O8MmTJy1Xs3LWPYshg0weXn5ZrhkVB3hqKq+mq0N85OgRst5U/U33jXyXuYJO/zIZeeNifpNBZ1/ryDqvrZXXpb1ZZ+J4c5wuvo6JzbPyVoTppc75tiXJy8kvZcvQTTz/7dRfHP933tGz1Wd/5IuUbdQf+7HRGaJzxADPv630v536b1c+5bUhPoSiDncZ5IYck1A4/msTqmClbqP+vclz9ojDdwSgH/zDQDuPVcBxSnqgUAcncfyrjGioWwzGN2l/cig739f/pw8t2A1OUtbDs4L/xaPz6eXZ7gqXFPUm5U/SP+Uj/M359fRNuUc9D+J5a8R7Dw3S538xb28DKtVl5FbY34tXMICXVdzOBIqFou0R71QgR+zQ/qArL/+l7Ogwe2wvwRYv2XKGMzIH59KVvkmePBwd4yYXkZVg7nXo0/k3DLKKz6SeKSeXLXF528NHHqgvC6gk7JH9qQwtGA690zH/rh3uzaXokY/zEtQ/zh51/vA29dV1vRAh61/s/dCcrMYX/qyYHT7/kr7f//n6r/KkSmTr86d8TLKes++x3Fj+I2dQ13wg2g4qo5+bS7jV6Gd5q40vE83K2n7P81f+G8vfyv969KyeKdG6ad9LGLaIMzijsqOrKmIrXxeP6v5H8jo4m95/7yDh+lx866b961LcoIBI/kspwfGXycWhQcKtPvb0dvn575f+oYud1L/VHVLbVh+J7JntUICGGauJ3XxzsSayMYJCmcMuyT97Fh/wmk5wzjtbfSBrG/JnZwfp+ed1Cw6uBtV/UwnbcbA6/+yxY+n11y82J/JdRZyYpbzNBW8J5JrRqZny5mBmKh05ciSdO3cuDdeHddFcHlrkXHCWnyHFWlhxd/L0hI3RML3yyitpBm8yprSeqrsZnaDMzKTTp0+nxSV33RrlMsxyMbFBXkeO6EQG+sfNSnq1Kr6rcETyWlrkfk4kdJns0vNnnsyZoVfP3J++K9/yo1t9JG4f5VtZtqg/thNwhRHh/afyKiMrxLBkliGNYDRDY6sIDplQf6wIvzo/Sq/Ob6Sjr2+knzy3kv4YTmI+AIyO+slzeje4ytA8mTPDNysf6aocc4ZXlzatQ0cZfvYSJ6ZjWfGHztDhV1t9Sma5OK50E+pfkmReJmGYc2IwGuteasrnM8SgrYMa3k5wsJstB0B3SX6jLbOwudW8xxsTksNzOhnJTqCWiyukCOfS+++bk6+i7rT+k+RTP1YgITgl3qD+uO5WDrkfHCSsrtb5WO6ttXTZnMgqkxvIv748Su+TD7BlZ+fgIH3rN0vp4bNrCYfwscUDerw76xQ0/FXiOgQXewP5lhOT5FCv3tUyYRWdfA2blAVvSWSr1+G59Cf3w3kml4IOq8qu9BxLJobC6X8qbi9BmXI6WfHPuhLH/wb1//cTK/b8sY3HZ4ztkjy8TP379oczP/ZXldshN5BvApmEoWWcZHvkN55akH7Hy5f2dWhOvj/w0On1lM/Sb6l/XJ7w/ZlluWABeclH69CH5H4X34CpttpYObRgLB7DJjqjLnYH9X99YZR+MK1l07qVCQD0j/FBtyht+sekMp1I6JT7/D/6QDnzgf4HWxGpw288tZjODfLKEtMztIoR0AhGl60+c7rizwhhd8gO6t8mpWQNa/lOgo/OSVzsPso/IBNrFIHym5BoLqUESssxPQxdUksp+F7IP43DvdhWwsO9VjnWol8+1v9kpRr79/EBMHFaZySU1eqZGflGABx5U1jJipmbtNmBbpnBF4R1tXtK8iV+4sQLaRbXjeKP+TQhUcvcWHNMD0OX1FLGsuf+FPbvYxKCVXjsvYfOEE5Pp+PHjqfLly6V122uAJpbznOs+/eRl9YxO/pZ/5LX8WPp0qVLbpJUyrMXz7/kzkK3lLFt9bn6znfoPf5kaUKizAmh0nJMD0OX1FIKPqn+syubCbeISAd4aC5h6whvWdTUOY+SlRWxS2opBZ8kn/YIzsdeKvuqdQBCJ68HRN9zaC49cpYOtxah5M4itZSCb0c+c2GoqccJt4XwRiE/sCP+S0/w7nJs9XGDvmSyO/KbrFi8hK0Gst2Dhwvzyh0cQ/n+gVvJw/PFwPk8VwNZtBwStcxvwv5OXeV+2rKSCPlYPcU2gr9+fEEd2/wGBZOm9x6eSxt5rzLLoGWaXMBumVtKwbf7/Lm/m/aHa0flr2TF4tF0DWeLLYSSaLvymfbcYCRv3mj/tD/v/KCM2OLhpDB5Dl0MwQkhyT4DpeWYcUo44Ozlt28iWP+yNU+fP+xxp/VHOVr5vmwl3lPbWigOx5/277f6SMpSPcsI25j4/LEaTD7sMcf2EOoAPJ97fCF9EX2A2PJs8v0Da4D0e1V/3ISGa2b1rE9pbyyPbAOaXk6XF5uKUlUNGV+f1W+7qDPc2h++To7vTEid5Nf/MFPSCr4b9YdjjTddXFWH/n3/h/4XWwnL32T552dHcrUrJg7Ij+Mfny2e869lG1CjoJK5a3dKfBbXU+c+rboMYA+fvyuOtZhCm1x/K/zk6u1K+yt7/K1ULBRCBzuQrCQpTowhuerQYgUwzDGRhtDBDiQzSYoT0w940Zltt/qQS7M2TJxSWc33TnqGjx8/li5fuqyOa0lipWvlA3/+eexrL3va6RRjO8+rr15Io41J78IoAKGDHXij+jO+L0Q2Fy6cryYg4vDLWYOZ9NLZM/ng7fbknz9/QScM09y2pJMcvEE4e/asO8SrpWE1Wv2XspJje/L70xVqCzH3uY/hcK/e7b/8fX7AC9zk2Fv5W9V/fTSWDxbZq97Ds+mV63lLCIvnSqp1ZATDtuY111byC6fm9bOXVm2VSVcL2SkP0vvvnU9T8g0CymW4e/LlmTDbHP78Zb5u1pWhK0vcMqMMX/pl2cuMQZF/zGYn9e+Tj/wsL8mc2DhdWdpMH3uIToe+XsYzZZr5tc30BTkImB2CwwO52lAYLFfwlzw9qHwltpuOHHWIj4phUJYPismq4Wz6x6PLbvURjtBYt6vI5ETL99MT7kAci+RKt1354LPkAhjmCkoawgJ/w7ZRzKWPP4xV7RKriQuvy6wDkkuzNszxkYbQwRm8OL+ZcChVnRJMgPVsCdqqODx5UvfAaV5e4LJ2Ob5Z+VYkl9f8+lju8Kd8nONozwJhwoKrT/3z/8xjqsf+EvbXv0++pne6qjOsMHIhn08+wrdeg1S2+pCjKx+OP/sffBkZHLiEQC8YKPr/yfP6pgUfV6PDR8efuWs9DHNlJA2hgx1IZpIUJ8aQXCldX96UleY/ub/WP/v3e3kORJIwPUIHZxDf4Hj4pbWEA936vGv76y5ylHIAYo57UX9s/3z47GqehOVnmx1uPAf0w9uVvzkep6nX1pO8zcJbIb5dlreV+mXsej2COTMs9cakSe1gLv2IX+4Vti5v0RDiGO+W4klysSqJEQyLfA9ZrACGORbSEDrYgWQmSXFiDMlVh4w9MNkA+hP0U5ldE+umkxWH0+NeyD+bV/ynpniPf7OXt0f+5uZYV6xnsGKtq+CnT59J3Ndeld+qSSpDi0hHnz2aIB8O/8z0VDr+/PG0sJBXHnvkl5T9UFcC+EhlWKctH+ao63/qRdzUk7cbTU2no0dn0pUrV+vEDTZBQtKVfr7JmElHjxxJV69ckdST5KPYlp8AhjVSC9rPQSrDwg9oK/mDj78rXXuXfsRr5fv+A151HsQmSMjRE2LfhP3j2Odnf8EBSztP3Ek9QcKuy2d9fXj22kb6r08vJRwMxFcysUVAt61wJWtW9tr7NIC30r/VRwDD2iwM9xzYx483DRw4D53MW6CMW1f85Qu5cvBsodbfPtnf8vpmPshbtz/a/1d+hW0X3BoyV1b9XT0I+vqTVlrRhNjG/rBfVp6bHFKdS98/Qoe+mx73pXNrEt5SdDlQClIZlpJJbCPfYneof9wKo06Obif45St8w0S5DE2CALttfxfyh6HoRMD+sGr9zacXZesRbmDBpEpWPg8Pqo9SVSXcYf1Fl3XVMsZcx+nb2MKDq0az/PccHqSvPrGQfnh0OX3x8flytWXeKoKV1G/+hh/xYj69QoTYz0Eqwzr9jfT/yUfxYS+1/+9O+e2fdT7AIEEc/+xIYsHhJ8/rdwnYD0D/L/BNUErp67/i+ajZ9Omfu7d+e6D/bon7+78Xr4zSn9yHLS15u9/BQfreTP8hdZ9nn4ax2IGzA6w/nj/2//PvRvoXPsm4L3fmomE/B6kMS5ory5tyTghtBTfX4WAt9v/L3w71jwPzWKDQdsctRXMJkwPLMEM+YP2PXVw3+//xc6tiTEypXZhhPnkF93OQyrBKsmfjX5FCuQxLDCDWHxWuOMYJe/xL9y3JjMOAOrcejJx4DhBhz4O8xkBCHTJaqIYYUDP3YOSkfDjsXGGXFX9j6Emc67+5uamr4HmLD7fjvPDCC+n6tWv9CTPVsnf11+s+84r/lE4kjj97TG7zgSz/x/RCM8QAz9oLk5P1v5H+4axjGxN1hD34OGeA/fnra9yrzVx7RRrx1KnT8r0E5IVtQ7KvfybntZ7zYlYMLbUCFdkQAxruLkrO7dYfOczbdZ53pCXc6sM/ZlY3Fcb2hkyyE/k+I6YHDVea6StTdarR4d3oj+l3Q36pNnPtl3780lC2H8E55H3Zr8xiP+fet3+sAsnK5aFBwsFZtiZff73VRydOX3mi3BjSV5uqpoYY0JekopHTy+9nqKjp6nK+Gz47MziovF39+5y2K/+f8gecMIDiAK9/C2H55cwee7kcmoY9ktf4HLBd+aVuLvE2xp97pviVa90qxavNmctey4ccyPiTB8p2EmyPOpk/WEf5K8OUsBf53VydPJRvuiIDQxY8hxXZEAMa7i4KzrWNcfqrx7RdePniLOVD5riViM4Tnin2h+OvkmSIAV2BDYWcO7V/2eOfb96xFX9mVpdKJHrHn+2f/Q9WwAcr0vuY/2Er/gfndKuP5V1XoCIbYkDN3IORc6v6Y9J4zzNLejYqnz3is/h7fwUrM+upP0VjaxPOWen3LEr/++6Dc/LmEOWo/ogzrCJ39/nPrY7kQK7eaqb9r7ylQV/9YJmU+CJUxTJkLNeh4qDwX+arke1cVLYZ1pNJJun/2dd1iyPsv+9WH6aXMhligC9qL0zOSfLtUZKxyaUiG2JAw91FybkT+Z2tPpqJ/1XDsDkDtd2V33YhmYPFygaWnePe5JbDzcmXFX84trLHf9ZESa5byL967Zoc2qXTr6viZc/6yy+9lFZXuquLJsCecEqLi4vpxMkTdquNOMZ5Lz2cY9xpvzDfbQi+5tQcwt3U/9r6umzDOTIzk6b8diR52zGdnnvueLpy9arVZiv56zmvmSM4C8E3HHlSMZPz4hsAKGoL/efoxgr2xv5wq8/1O+9I1955h+7xzw9xP/Rvz7IYjkD/dGwlr2xi//xc+vqv1WHdSv91Flr6STSJ3UX9v7bg7s8/PEh/13u9YinTbsh/5oJ+tVUmG4cHCVsY4AjC+ccKh3wTYZyS3IYke+zxEbJFoePVMDvHWkcF09L6372xP0rkgVA4Ad+Z4r7wvZEPRw8rrHCa/A1RLAtCSr6yPM6rkrrP9uVZHqxTDp+mwH1xhSbQDu0P9/SLc3doVibEP3luq4lwkdVXpjcjnzr59fk1nZDL1YpzaVq2txUpCmnLxqqrOHWHB+kjD+a96NTtDutP+dZn3GD8xa0+mNRRPleDMVF58MxaKjfpDOTrtt0aUCJtYe/s/1N2NWvZ6qNP0P8W+ffhVp+sf7Z/1BOLI3UKrdXXZKuPLqCgD7iZ579d/Xt9Lg3H6d4X+YXivDffXQmL7Upw4P2tNb4eCmv9NzbH6enz6+mzj8G2srNvZ4h0+953nllK9ccgy7M0aA/sb7SZ0lMX1tPn8headeGK13Nqu/32M0sJZ0y2M/6/eGWYvvk0Vvh1GxPejujBZlwoMZu+8Phies692Sk6p8YKBQK51Qf9Hu7xt2fp2TI8Sf+W5gbtr5tlKZNAe6D/IrPI6qN5+Y3j7xIamIE6kHypA4ky/iKyQFtGFrbcfDVzkmvBPqdJ8v0HvAZyeNanYr59ofJhSw7u59cV8XwwNzvIWB0/fvx4uvTGGwnbg/AnvxNErK8P01l+V2CGd/Zjm41OTPBm4Pz58wlftM05acEsvwzUgcr1NOPX5PVvf+TmeDO9+uqrstqPutJxl3rjzQf26Z85LQeB+Wh8Tl7/m6PN9Oprr6aZI0fsTYLqD287piSvM2fPJHwUbPKfy93ADNSBZOHls3z9eVtmFo0v91571x1ys0/5cq/jM7AWbGQ8LR/lI0wKgS0jhQl7gvFKVAZsHE77+UI+WO2FVBayq/K1pK6cBm4t/3O/WFAH8eBA9j6zxnVomdXkDub4DCzyAeF1PnQkNz7kFUx5bQ7YDYTUowwe1Cv20j/Ycw2glcOEOkUX+WBzHLui/7/OH/1Beb/wuFsIMEG7Jx9XAOqgrAOqieipP15Kqg7VJvH1y72ov4luc8+F+9fn8it+2RIyl5aHpdS72f60HCXv8qCV9vfP6FYaOA/YQ4+/SfLxVVNvf0N4Rtv6myyf5XEcE+VDFJws3HL12MvrCY4U0uEmGZ0U6PMv10uycC53AzNQB5JgUv2ZWwkts0JKSfoL6klX/B2fgUXwzGsbtuVLtjQdHKSp1/JNeMZfROhKMfqLWXeGoMR3IZeJgUU++I084fkjHh9Z5HdE2v4H7e/PH10QR9nnpWVxlAy+MruR4DS/V/q3cusN+z9suzz04lrC3v/Jf1vF+VSOz8AM1IEkeun6SMrGm7ba/hdlO4yy8VYKL6qBsZ0PbV23kfob47T/Qf2/N7Mib0mZdLv2Z4d7D/M6T+bQhlZp96DrijuOLdtfnbNPVcfUmOMzMAN1IMm2W39XGRNXO/4yG7G4ysgLlZCWxMrHRuEJZGWcy1HYWt5dkl87/rrioqKKwO3Ix8q45pVvvqm2x+iE4MKrr1ote/PMsaPNTTlUiz3wcIgxgZCv2Lo8Xzz5otNQ3+MyUT0azfylip4551si27JeuXIlHXv2mF69iUmJu4YT15AeO3YsbYy6J/NLjkW+5HXsmE2cypWeer0n8hpubHQruEvPv6p4RrScpbQDrPi/Mzv+PNy7j/K9/p++UG4dgGPxqZ/NJ3yevpR2OzUq+t8Ot5dv/Ln+j59bS5iI3H96tWcFidxaOuzNlcH78ECvB5xQaCWXSIEKqpneQP9wnyBLnVcdEKAvyhfYbWegU1FuXpmVD/tA2JuRz5pbYZlPjmCej7+yJlc84ppHruZpVUuFyatXGmodvtV85bVw15JvJH8S9+mrw6w7XX282t4x7/SPbUhFt3PpjYXWeW1rNEGnXjfOoln/qqxOPujro6RbI+Tq07mEFc3yt/fyvf6xykjH5q/kasjJ8vV7A2Vbzatz/ChayVGggmq1mvq30aXugDTW8wjsCS4ByD8+vmzPH21o3PNIfXIPu6wyqLGeR2BPcIlabuCfkg/v6YS97zrPNquLi/rlXrZ/vO3zPAI7Ap1ItH/9enaJbHmlqDepf/SXct0r+6QcimN8aCBnQfhl2hvJP3F5I304Xw+rW1x0ssb+DwezMcEoNdr99ufzdo8yoWx4k4WylD6ivNHAQer2C/OaV8lRoHGSr/7i/AX7askvL+AAxhvRh86sy3joy7AT+z92kRPG2XyP/wRd3eTzZ53qcio2qf4V7z7KN8e/PJKqKNLBWKHJxLAyO5/OGDwxw4xjqOQa88n4ksVpxZgN8AnSmTOn800zfR/wYhqGN5Y/2hyL035kJq9myzkAXck+ebL75V4aZVUoQ8bp6tUr6dgxfNyKEwq93x8r7N2/ndf/RvJVRn/99W3HC27VHrf1aF3ta7uW1ICm2EpfWFhML7zwfM5L66pnAKbT6mq9ZWpSTqiLxm3/+W+n/nMff2e6duc78or/5yda8l7JZxnRicqrWxkk5qSjw37d8rc39ad8yvES8QqaHfGPjrvX6GRimMbpq3LbivJj9Vr/jIHZu5BxDG+UotQfKxx/+dh8+vNHFtJfPLqQ/vzRObkuDyto2OOr/5SOw4262jZIgMnzrd/yhp+dyzcjsaQGuPql9L57+fahe9Vp0btuS5LvIcir7EH66QkeWvXZlfpvV36R4fNJSb4qiy0zopvZ9JPny80zbU2wrUBtALel5IN0ZGJoBarlTJKvXEzMsKb6nO4/pR8xkjc6h2bltiSJt6QG+GTmFDfEjDINQyXXmE+p+v/2M/nAPbbvPMA3M/2pfoPtaM7+sF2p/BFmuD35olMmYbgD/c+u4OYftAl9/t/6DdvB/sjvq/8nH6HDN5e+037AyxIU+8dHoUSvB/ERt7kEPff/jRN0TocbaaZezde/ms5MiZJFjflci/xu0jqVfrlX3zDw+eNgvH6EinkyDUOl1xi/jqvPi/aP5/ftqaX0xjxnbG2qVgZxHzINw375JUW3/odO4M2h1lP7Ev2oHt5M6AJBnXfJCxDjNMREyI9/6HNQT+hSrzjuyrcsClCLaOi61UfHqB/bVkGWQ5PWmM/u5uX73Nr6M26/5dcf8ILCrAQGsGwSeqqHkbDCWyTjfD1RBHnG3ZEvq/R5a45e51nyvVn5ly9fltVvroifOEHHf+f1n1+Yd44xtsNMF7XU2rRn0GjL6Lut/7X11fy2oxwChuP/ZuSvr60m+ZqynCnAh8Jm3DWfTY6GGuDq6NTjuhBl2Jn+xfGXrT7uA16onYk1YE/kQ9B5uSUkb+85rFsI5la27tR9qTy8m89f98druT720HzeckQtF3Vg24U6rjpA8bCgcFSFK3q92fbns/VwW3/5cm9ecfsq7vHPzPsh/+vYW5zfPGBFX4T3yMfWG+7BhqMw89q6ldMBReGNzW9Vf9bXnlpm/uzP4cDqIIhrENerbSjlOX3iUeXBQIxVN/55mR5GeSu8RTK+Xf0jN2yp4QQUNok/n62Hd1t+LQnfstDtO1zhhMMySb5cQZifv24LKnrdbv1b+Tej/xcurctNMlg5xgFQOG3t9beafynnbsqXvHqeP65Fpf3bVh9TqgGsuoSfcOcCcEd++avt74fuIPt7Ds2mxVXNby/1j+9gsG3h/MJT59ezjRS9blf+oRfLtxlgQ4dPriZcl+m14mHouMJbJOPblb/V8z90Ug/+LTO21wAAGT5JREFUoy2gbMCxnacV6Z8NI1v55wf52yKH9cvr90wt5+08VW6Wlad6eKv641Yf6Y8Pz6UfHediB1MzhIjynLaqPwvjU24l3+fb1r+Ws3/ybcW/LoCvRmNQrHXWk0cJ1wopOSvd/zJFN7MitUCeW+BWUGaQD3jlLTRzg3IVnZfcTVpTitQCefnz8/PpxPMvyJdoPR1wnVPBJ8nHlaGnT5+SCQXzKlILxDgLW0E5oiUTnyRfk5GLmOKj0UY6d+F8OnLkaMJB3uqvTmJRLZn4xmiULpw/J2cK1ta5AsNk5FK81LpA5LSwTjKRTDYN9Veu88Th3jt5uJdc+yP/6vJYPpxExwarxLj/nX+l1gVinIV1kSeSyaah/7UkldWiI8dhKh3EZtN/+81S51UrVo+/aPvT1UHD2wv8UR5zJ+4lk0aeNlWpdYEKb4a6mUgEyH6PLb/cu1/yn7TVcn3r8HfPLCX4117+C5dHbtKEbVKDZoLFyr25+ntdlZxSujC3Iaumuoo4SHCkFtfAoVw4toQtNf75P3G+affMnBkTz2FLJq6h//UJyaW0J87pIW44hjjIiWsQO391EotuycQ19L+WxOpPStG6QvjQkrTVvA3hww/MpUvzdZkwqONrvZwcgB+HFHdDPstVhcy4Iqa0uD5OL17dkD3+X/sVnqWuokp4eFY+uNdNWlPa+jciFK2TGEtLJq5h+eWtPtDTd6faNxAlFSEIeP4y72QfJNzS8i9yWNNEC4CzC/p2Q9vf94/424uK/DqVl4LWQLxANX/HZBK+iowrj18ZNHaRE3rJzL3kWVPw7ZTPPLYoiwF1TElhRXQkgC0/cQ39r09ILqWVWheI3JgEYzvPEXuLwhim7ce9ZEq7tLgp2y8fOL0it/gwZZFaIMZZyEyMoEBLxgfGYA+wf5wjwF/L01KK1AI1YtokFt3mTVxD/2tJOiUqUgvkuQVmxk1ESybuJYvjz1lIJYJEawIuGXOidPK2dKi3ojUlzGhJ7phJfBPyz5w5m2/TmUqD2XKrQr90f0hrd+SrHOR1a+of8qGBrfWPW33g9OPf0j16ned+2r/ek46BaSDX/+HjOp94ZE7uBcfXCXH7BlaNMDh+4pGF9KlH5tKnHlkQRw3Xk5U/2Fi2W2e+N6p/Se+Tawb4/cTD+pEiKd8hXKM4SN/49VL6h6PL6eu/WsofzdGVfty0IPuvd0m+lI11ehPtH+nV8dcPv+C+/K3+KGo3n7++9s8fnjms11D+7dNL6XszyzJoQq/8h+sXf3sB+3WdAlkoo5Zn49m0j8npXPKtnr/edlLkw4H64i8X5QvHssoO5xaHaQ/ph8WcZBXdymFZWzq4K1r/UyjJC/PHHiz29/GHsNqvcfJb2HIfmwkt/SbkW5ty+v+fz2FCPGcfkcLzw4HsH0wvyeT4Q/aGQifCaDNLMqnqrzepffXvkw/+G9Vfv+7KNyXF/mhr35/pXq6wm/JZp63sjzx0/GH/OCu0XfvHNj/dSqP9z0ceGMgh0+/8dkm+M8JVd9nWdHCQlto1JhYgh7eq/ixGyFdNbPf5133Kjce/Z9/gF8snXOdp3YfrQPhQzCo17kbtj890O/ZPXoraq/pTjg8P4Ao8+SedZIahy81N6Xv0ijzQN+WDCcqvMJaoqv9Qg8yHxGPES/7IK3PKfXsZp+wcJ2mEdnPyT50+naanptLUM1NpdnZWyr6f8uXDEqjHLap/yNfOYCv943Dv1TvvkH9L93xOm7fZ483Z33b0/x5cS+f/YYXd8EG666d50D44m+RDVAev53A2PXRmRT9esoftb3ZpI30Qe/175N/FsqCMh2YTDpoNs62/Fdo/9P+lx+ezDmfTl385v6/9D+SvDjfTR+/X6+egL936Mytlulvw8rx/dCw7Pftkf6PRZvrmU9iOVMogWy4MV/vDvdvYEoL67Gf/L3tynf3jg137KV+Hsf7x72v4KFRj/6K73H7xbNFe33doNp3CbTpZd/s1/nz+F9jOM5vuxrMUHeIZX08ffWAunbk2lDEJbVTLxfFZx+bdGn+30/9B/icf1v4FdvidZxZlBULLtXX/O786Sp/G3e65/+nTP+r//kODdOoqnsH++h/brX/1DN5G/tdbrf5HX1uz/hd97VvF/m/l8z8gnRwd9oQDZ9lpAizGyEboOwdtSMW5x3tsTYv0rBAVzDjQSzzmROBF0jxh2CX5p0+f1q/mTj0jjv9+y7/V9Q/5aoNb2d/gz/5zuvouOP7vSMs/+KJ0BrD3/bL/98ge4OLci8Mgq/950MYWBxzEAx8HcLyyPzibHj27ktsMJ5d70/42xuN078lVGUDFSczyxZE9NJs+fN8g/eacOmVsY6V9a5vWtl3afYnfu/YPmV9+YiHRwf7ak7gaVW2CoXQ5e9T/sP3hQ30Pnl5NHziM18zqZOskTp/rnz08l05d3dj1/o/yt7J/1P/+0ysJK+t4tt7+UN57ppcSnr8MAbIItH/9v0zasv1/4PBcwkRF6mTO0a0df567uJbw7OT6XWmb16Vd0uH+4dElmfjdSP97Mf7hDQSeJxYWPnTfbPr6rxfSk6+sJdwDDx3up/3fqP44nC8T4oOz6Z6pRfE3UD70JfhvK/8DfP96fFnaFvoj9IvQP/6h7mj/S2sj6ydZb4b70f5vVP+9eP6lfre2/4WtvVXq/+zr69b//gsuq5CxYG/Hn7dS/Tk2+/Yvh3vVWPCctHNQxcCpyB2u7zBaHjr62J4sbRZ5MC916iU/8U2YXw7lHnx2RkzjyvAm5ePLvVjtx8epdMUfdUFZ9kf+ra5/yKct3Rr7ezvqf2l9M528PEy/fmUtnb02TOs4zMW2j/At1P7fivpfWBknHLJ86txaenVuqA7YHvV/O60/DuYdvzhMM6+up8U191zfZP+7U/m/q+PPcDRO52Y30tPn10R/OJivbeLW9T+1Lm+P/m9luJmeuzhMUxfW07VlOPu3Tv+3+vmH/K7/efT19XTXT/H29XqSW+roB75F+t+6zd68/7sd+y9bfXInL7Nt5+hLoTD7hsNvKy7aodDRx4eg1OAQ4h8mAa4CeSW1M7GwdGWSwXSqjDwp2KF8OP6y1Wcqb/XZZ/m3uv4h/9baX+g/9M9+TPrF6H9soqPjBMcGjhu72/9H+4v2F+2PbUz9NvGnOou2t0f7O3pxXd4E4c15WfGHfm6P+sMC2udfHH957Q1l5Nmy4eiUZSlfHP/ivMO3x8s4xJWJAB12Dnh1R5+NcROv8bAEr+lq3puXz60+uDPeVvz9RGSP5VudvQ5DflkhDv3vqf2H/eV+JtpfaXPR/xRdRP8T/c8e+h/R/761+l9Z8c9bLWXFP9p/OqCznuyEQyFugEjyFsA554jLg6nMqG0GmfKMQvbTGI9NGIRPdlBnPs1Tpg0y69pd+afPnE7P5MO9Axzu3Wf51NGtqn/ILxPMYqf7Z3+h/9C/DP5cMIn+Jy8S5QsiZJjQPdxvx/En2n+0/2j/bsH4Fvd/R1/DPf7X012HruuKf/Q/cPzxgHjQITdYt9UH8Vid11AfpqTpWU2rXq/JBKJMGjQOuOZVHLLdl28r/lO4zhO3+uQ3FhLsvXzRzy2sf8inHd8a+wv9h/7VBsL+2Bb2s/+nTO321RZDPvSwP+Nv6D/6v7dS/3fk9XW95ergIO/xz/6gTEh23//8XbB/cfyxyq8dI0OZEpVXo4gXJelAprx5f5Qc6suwTCL0rQFPdEMJfIvAUGhu4rDb8uH4T089I6v+2OpDuQz3Wr7Wp+iEchmGfK72aQep+vID9O+2/cXzRz8S9o92Lm29CaP9R/vXt93FPt5O42/0f9H/vZX6fzj+uOkKNz7p4d7of2SrDw7usuMRPz4PVKBhH75E84BAM4ipM6sTAg50HOx0D39xAETdOT1X/hHutvyVlZV0/fr1NHt9NuHLs1au/OZCcZZr9+Xf6vqHfE4+YZd8zngB72Cjx/Pf7fYX9hf2p85ftL/of1yfG/1v8UVi/Mm62PvxF99UeeHSML1weT0NVvSK19Iu916++ptvLf9DrvOsV/CxCpEbq+zWl7UJt+Kvq7GyOchNEDqHfhHHVX0JdXKgA4JuGRJYZwdFJveDMT06izz74KtKmZAwb76t4GsbmcO48jMfoXNADvl4XqF/uX4Khhn2xzYf7a/YgvQ80f9E/+vfeMf4F+Ovjht06GT8CP8jO/Jusk8fTcLw/8qC2K33P+0DXt6I1c/W15BGl5PQ5SzApvR/7lWln82jEeBGsexEwMFkPhLKiXrS1CAYL52K9LOM1xCvHfSqcMVDftGbOvBuZSX0H/YX7S/6n+h/ZRIX4089lspIamNyGUcwBsf4y10Otc7C/wj/6+3kf9p1nuUuflmnl493yUyWszbrKLLjnb/YQ4e9DuGEog8pzqgQxCHV2Y7yl/iQX3QhT0BnNrLmWOs29A99wF78W6daR2F/0f6i/4n+t/SpMf7ktxYYUWRCiHGk6CfG36KLGH9hI/mcXfh/9aJ19oN/1/2PA+wEsERKZ9xWSLAr2hmAHgXQVQHwesdLVp05OcidS4nP1326jkadt9IJhfzQf9ifDsbR/nRyiwE4+p8yAEf/q32kLEjF+BPjr3NKw/8ofplOXLx/Fv6XjqlucsdLZ/Ik+HbzP23FX4wlO+ZeCeKMSQNTpSGOHS8nDcKjJ4BlJdaceuQHOtJLHpoWg7nieYDHhEHiiww6gSG/q5vQf7YbW7nSCSRskytX1tDD/qL9ae8ii774if4n+t8Yf9zYG+Nv+B/hf9kbsNvB/z2ADtBW1bg9Jx+olUUV2Z4Dh1xnjeJQiZHIHSnVtX12hVOOVwc17/WXj4GpE1vRQ37on2+Vwv6084n2lwfihE4HPUT0P9H/ymUEMf7oGCqLa+Kh6GIZ8Bh/sy7C/5DdG5WfFf6X7mhRr17GE1m4vk39Tz3ca4Mr9k7TUXcrAqIsbkVhB5PX8XVBv3TKWD3A22k5jFs3RF3F19tkZI+UbA3K8vLh4JAf+pcG6Vfzw/7Q2GyvoQ7w0f7EBYr+R2wDDrG+5Yr+N8afGH/D/8BySfhfZcdI8We1r8xbKOnv3mb+5wEbLGQXDlfXoCQYDf+Vvfg4UqkzSVUk7gC3Q0LeWcNAlGfebISWTmPQO5XBKuTnGWlurKb7jGfdhv7D/qwdybaVaH/R/9R9hC2wRP+rfWpehLJ2E+OPvFGL8Tf8j/D/1I/VHey3j/97YHNzJFtNRpubaXOEPfn4oIF+1EDg8TghbryJDx8wzoWZJrwjR8/5gC55EwfPSLcXqZyQDz2E/sP+ov1F/xP9L8cQLDapYxbjT4y/4X+E/xX+J/tGF75J//sAnM7KaR81jjo635E653BMihPvnXcUpOAjN0FQ/rHk4enq9GsFQr46vaKTSsd8NqH/rm6KvaktFdzbWdhfbpujUfJ6ifZXOs/of6L/wdjW7WOi/9W2EeNP1zbKeBPjTx5j8uKuH2di/H1rjr8H7MHI6op2fqWx5wbPyUF+sIjXdLmzzHTfeQpsK/t59YZ8Y3Yko5xPbkTV7AU8IZ8OmjyT0L8MzmF/0f6i/2n6XvQNznmN/hf6oHMW448fPzZj/M2TvPA/wv/Ljjn6z9vI/zxgnUAeOMqAqnuHiWs40kO7foDJzigdVITj3LEgTe2k5Y4YHXK+Vi/kl8kNBmvqm2cniIf+0UDD/uS8TLQ/W531/Q7h6H+0T4n+N8afGH/rMVX6iPA/wv+6zf3PAyOuisCZwIzHORXaaTSrJbbaP9I705neTQDESUVeeQblV+51cC7ObsjnZCj0H/YX7S/6n7ySn89bjXCo3/Wt6D+5CID2Mo7+VyeBTkcx/uSxJMbfbBvF3wj/QxfQVA+bKfyv29P/kj3+xUHHCgkbCUIHuwmBDDg2AGH13hsT0+QBzHXIHLTkkIbkl3mtgwr5oX/aD0IHh/2VVW44fNH+yjbB6H/qttL0uRzko//VSVOMP1xgiPFX2kb4HzZ5Dv/D+RxvY//jAFbY9NV4nvlII8iwP7DbGUzA45WEVQZdnZIVqjFmkxoPYyoHPnDQFx1w3u4T8kP/sjUs7K8MQtH+1FmlHrjK7RcTov+J/jfGH20nWQ8x/sqCSPgf+sYn/K/wP9E/9PnfsuKvr47zoGpXerJT1dXF4pSUwVdfQY/NqcdroxGcfK7O5skCX0ePHV3Tal4hv+hUJmKit9C/Dmphf9ZW3MqUNmjYTbQ/LipE/xP9b4w/Mf6G/+H8CTh+eTtg+F9FLzam2pvzHHeb+L+61Yer+fnOfl1JwiCi23gQokMVZckqft7e4x0R2X7AGVZWosQXB1YcfFntb/hCvr5qC/2X/ctic2F/2EYX7S/6n+h/Y/yJ8RdblOA7hP8h26vD/7ItSrr9vPErw/90u3LyW/Psf1eOf9nfxT2A+ppAVl7zaj1X57FPkjNrmSAg3hsinXnZLpSd/7w3ubfh5lcSXOXlIT8rU8gXIw/966Qy7C/aX/Q/2hai/9XtozH+5AU3G3uBuy1xMf7mg/I9E4fwP9z5zvD/3u7+Z324l9dJZgeeTqZ2HsWx19ck6swbj6xMFoMxB14aFPfo5lWb/HrFXj1xwhDydcU79F9NcsL+8l73bBfR/uDQRP+DPjb63+zsxvijtuC203IMRn+hdhLjr/adqo/wP0rbEVsJ/+u28b/yij9epXN1wO2pFho+cpFXDbiqP8IhXqXJDQkCZyMirzgp3mHJMLYMSRwGbtJCfug/7I/tgYOTDtzR/qL/0b5WVqHQd0b/G+NPjL8y+Q//o4ybOl7kviL8r+Jfel2E/yn+94HRaENu38EJcIE3EMLZ8PRMG43ShvAp7mGkVVxv8xkxH+zJgwzgm5tpY0O3KIgsOQjs5WS+kB/6D/tz7TLan/ZP0f/4PtfD0f/G+BPjL/rJ8D+krwz/y8bP8D+7/vcBDqjiiFdOPRxyNKKNtJFv6tEJQXFCNs24tLHh4A146gFpU3DEgS4PQeDcQE2mnwCAN+SH/sP+ov1F/xP9r3PoZCzScSbGH47FMf7C7wj/I/yv8D+353+L478hDjwcdHW+sX92tLGRG5KupBSHHXHYI8dOB7OJ7LRXEwHQykxDJg3m5DNtNtSQL5Os0H/Ynwxg0f6i/4n+N8YfGS9j/K0XDMP/CP8r/M+b9b/h+C+KU47DcuaYb2ZnXlcSdAWfr1LhrOfOCA47nBT+yyv62lDRQOng54mBODRl1b+aDIT80H/YX349Ge1PFxOi/0EfGf1vGXN0zIjxR8bYGH+L7wHfIvwP2VER/lf2ZcP/zP5Ex/+eP7CxsXnKGgz24POV2eZItvjgQJmt6JtzviENTiYKolx9O4C0+Kedc3HwZZtPbpglnrM2vqbEK/2QH/rPjTbsL9qf9DfR/0T/WwYuXZyK8QeLbTH+cnEx/A/xscL/Cv9zG/73xsbGCwdGo+E/Dzc2Erb7bAwRun/DoeHKs9HlIf9QG6GmZ14jS78xBMz8cjhEh76RQn7oP+yPbSban/VB0f9Y/xn9b24X7RgV44/aSIy/ssMg/A/vS4T/VcaS8D/pfw+Hw3/GVp8/EuXkQRarS8A50EgI5xwdruzZz4aFff2YLAivd+gBYxKQO2qEdO5zp13imA4TCoUZF/Ldcwj9h/1F+4v+J/rfPK7ouBPjT4y/4X/AV6MfhRD/wv+iHym+bfif6s/T/x6N/uOBlNLvj0ajs3DORUlc+TdcV/lFkaDlxLJCCyPLB3iRFh0xHXYqXPNk3jkcbqThaGgTh5o3r3yG/Pw8Qv+wubA/nUBH+2Nfkldwov+xfjT63xh/Yvxl/5D7S78ASTj8j/C/blP/czQavZRS+l8P4G80Wv9DWT1Bg2DjgCMvq/C6qmAOfHbIxRFzkwBNB2feNTg6bMKHScIwzzzySoXkpbPUkK8TntB/6bjD/nT1xtqea1vR/upFiOh/0G6i/43xJ8ZfW8QM/0P9sfC/9E1I+J84f/t/itPPn42Nja94B8M7oFidR9zQr/j7Ffk8WZBO100c9K2AOnIaVyYRleOC/f9NfiG/OMCh/7C/aH/R/0T/6yZ7zXiB9hHjTxkzdCxvxtu8Ndd0xYW7GH/D/2jaU/hfpS29ffyvjS/T37cwpfR7cP6188wrR86JH0knoR0JeaRzkUNF6pgpTke/0GhEDMEng1jOH3R22sybuOQpbx+Qb8iHPqgj1Tf28xVdcyuIp1HvDEP/YX/R/lzHbm2qtK3of4p+pM+J/j/Gnxh/ZQE0xl/0DdnnCP/vd8X/+po5+33A+mj0h8Ph8OwQ23zk30Zaly1Aw7Q+HCbQ8Y+whjj8W+IYDyd0OFwvcRsONvp6Wl9XWZIOk4KcV8iHXkL/YX96gIttju2rhKXNsO2AN9pf9D/R/7oxJ8YfG1uLXcT4G/5H+F/wNWU8ffv5n+fW19f/Y5+v36HhwO/6+vof4dqf4cb6qeHGcHFjHYrRgVRv4CmOvihN4guPOCAbmUdCdU7UIRmm4bpOHmTmKErPHbTkk2GkQ2eN2WXID/2H/clEOtofVpui/+EkL/pfHU9UH26yRxuJ8SePHXnMxXgb468sXob/Qac//C/pP373/c+l4XAdC/f/Y320/p9TSv9Lx8H//8/1/n9u6ea1KP9G7wAAAABJRU5ErkJggg==;" vertex="1" parent="1">
                    <mxGeometry x="369.49" y="494" width="375.02" height="47" as="geometry"/>
                </mxCell>
            </root>
        </mxGraphModel>
    </diagram>
</mxfile>